<?xml version="1.0" encoding="UTF-8" standalone="no"?>
<!-- Created with Inkscape (http://www.inkscape.org/) -->

<svg
   width="297mm"
   height="210mm"
   viewBox="0 0 1122.5197 793.70081"
   version="1.1"
   id="svg5"
   inkscape:version="1.1.2 (0a00cf5339, 2022-02-04)"
   sodipodi:docname="Logo.svg"
   xmlns:inkscape="http://www.inkscape.org/namespaces/inkscape"
   xmlns:sodipodi="http://sodipodi.sourceforge.net/DTD/sodipodi-0.dtd"
   xmlns="http://www.w3.org/2000/svg"
   xmlns:svg="http://www.w3.org/2000/svg">
  <sodipodi:namedview
     id="namedview7"
     pagecolor="#505050"
     bordercolor="#eeeeee"
     borderopacity="1"
     inkscape:pageshadow="0"
     inkscape:pageopacity="0"
     inkscape:pagecheckerboard="0"
     inkscape:document-units="mm"
     showgrid="false"
     inkscape:zoom="0.7332094"
     inkscape:cx="653.97415"
     inkscape:cy="294.59524"
     inkscape:window-width="1312"
     inkscape:window-height="995"
     inkscape:window-x="608"
     inkscape:window-y="0"
     inkscape:window-maximized="0"
     inkscape:current-layer="layer1" />
  <defs
     id="defs2">
    <inkscape:path-effect
       effect="powerclip"
       id="path-effect9553"
       is_visible="true"
       lpeversion="1"
       inverse="true"
       flatten="false"
       hide_clip="false"
       message="Utilice la regla de relleno parimpar en el diálogo &lt;b&gt;Relleno y borde&lt;/b&gt; si el resultado no está aplanada después de convertir el recorte en trayectos." />
    <clipPath
       clipPathUnits="userSpaceOnUse"
       id="clipPath2620">
      <g
         inkscape:label="Clip"
         id="use2622">
        <path
           style="fill:none;stroke:#000000;stroke-width:0.994676px;stroke-linecap:butt;stroke-linejoin:miter;stroke-opacity:1"
           d="M 201.47585,794.91152 C 266.41611,342.2745 267.19279,337.19706 267.19279,337.19706 l 417.94724,-213.62304 438.72487,203.854 -922.38905,467.4835"
           id="path2624" />
      </g>
    </clipPath>
    <clipPath
       clipPathUnits="userSpaceOnUse"
       id="clipPath3511">
      <path
         id="path3513"
         style="fill:#ff0000;fill-opacity:1;fill-rule:nonzero;stroke:none;stroke-width:1.00165"
         d="M -0.5967272,1.1180683 -418.07532,710.39234 541.83229,1221.932 959.31087,512.65769 Z M -7.2703098,187.16615 c 4.0233991,2.1394 8.02788945,4.31193 11.9935064,6.54511 13.4757524,7.58848 26.6202274,15.64392 39.7566424,23.73518 0.544055,0.26069 1.094909,0.55354 1.657067,0.90832 1.085358,0.68504 3.348295,0.72249 3.256258,2.05643 -0.0017,0.025 -0.0016,0.0328 -0.0034,0.0579 1.020975,0.62888 2.041022,1.25811 3.062502,1.88665 -0.08196,-0.0472 -0.164172,-0.0969 -0.245767,-0.14471 -1.224971,1.12899 -2.23337,2.13356 -3.131523,3.06379 -0.661263,10.49918 -0.708671,11.01574 -4.460309,8.89599 -15.588257,-9.59193 -31.09047,-19.26664 -47.0690869,-28.26524 -15.8622241,-8.93306 -32.3322891,-16.87934 -48.2544821,-25.71505 -11.41904,-6.33679 -4.24164,-18.53082 7.177562,-12.19431 11.941823,6.62652 24.190522,12.75223 36.260975,19.16996 z" />
    </clipPath>
    <clipPath
       clipPathUnits="userSpaceOnUse"
       id="clipPath4315">
      <path
         sodipodi:type="star"
         style="fill:#f9f9f9;fill-opacity:1"
         id="path4317"
         inkscape:flatsided="true"
         sodipodi:sides="3"
         sodipodi:cx="261.85571"
         sodipodi:cy="625.78058"
         sodipodi:r1="225.00896"
         sodipodi:r2="112.50448"
         sodipodi:arg1="-1.5928431"
         sodipodi:arg2="-0.54564559"
         inkscape:rounded="0"
         inkscape:randomized="0"
         inkscape:transform-center-x="-3.4400066"
         inkscape:transform-center-y="-70.617991"
         transform="matrix(1.386777,0.00288947,-0.10900387,1.3098648,-301.74019,-115.20181)"
         clip-path="none" />
    </clipPath>
    <clipPath
       clipPathUnits="userSpaceOnUse"
       id="clipPath4315-6">
      <path
         sodipodi:type="star"
         style="fill:#f9f9f9;fill-opacity:1"
         id="path4317-7"
         inkscape:flatsided="true"
         sodipodi:sides="3"
         sodipodi:cx="261.85571"
         sodipodi:cy="625.78058"
         sodipodi:r1="225.00896"
         sodipodi:r2="112.50448"
         sodipodi:arg1="-1.5928431"
         sodipodi:arg2="-0.54564559"
         inkscape:rounded="0"
         inkscape:randomized="0"
         inkscape:transform-center-x="-3.4400066"
         inkscape:transform-center-y="-70.617991"
         transform="matrix(1.386777,0.00288947,-0.10900387,1.3098648,-301.74019,-115.20181)"
         clip-path="none" />
    </clipPath>
    <clipPath
       clipPathUnits="userSpaceOnUse"
       id="clipPath9549">
      <rect
         style="display:none;fill:#ececec;fill-opacity:1"
         id="rect9551"
         width="1156.5349"
         height="146.2614"
         x="128.82864"
         y="700.53265"
         d="M 128.82864,700.53265 H 1285.3636 v 146.2614 H 128.82864 Z" />
      <path
         id="lpe_path-effect9553"
         style="fill:#ececec;fill-opacity:1"
         class="powerclip"
         d="m 153.7406,327.56258 h 924.8285 V 798.13249 H 153.7406 Z m -24.91196,372.97007 v 146.2614 H 1285.3636 v -146.2614 z" />
    </clipPath>
  </defs>
  <g
     inkscape:label="Capa 1"
     inkscape:groupmode="layer"
     id="layer1">
    <path
       style="fill:#ffa83e;fill-opacity:1"
       id="path8050"
       clip-path="url(#clipPath9549)"
       inkscape:path-effect="#path-effect9553"
       sodipodi:type="arc"
       sodipodi:cx="616.15485"
       sodipodi:cy="562.84753"
       sodipodi:rx="457.41425"
       sodipodi:ry="230.28496"
       d="M 1073.5691,562.84753 A 457.41425,230.28496 0 0 1 616.15485,793.13249 457.41425,230.28496 0 0 1 158.7406,562.84753 457.41425,230.28496 0 0 1 616.15485,332.56258 457.41425,230.28496 0 0 1 1073.5691,562.84753 Z"
       transform="translate(-50.584111,50.014557)" />
    <path
       style="fill:#ffd721;fill-opacity:1;stroke-width:1.36387"
       d="m 407.38176,641.95299 c -1.05596,-9.52872 -9.74185,-43.97257 -15.79082,-62.61857 -22.60008,-69.66483 -59.18006,-122.8433 -100.87101,-146.64215 l -6.6482,-3.79506 60.20628,-17.75066 c 33.11345,-9.76288 60.54068,-17.22141 60.9494,-16.57451 0.9824,1.55492 4.27569,249.99577 3.32354,250.72371 -0.405,0.30963 -0.93112,-1.19461 -1.16919,-3.34276 z"
       id="path37778" />
    <path
       style="fill:#ffd721;fill-opacity:1;stroke-width:1.36387"
       d="m 546.92719,621.30101 c 1.38137,-9.48701 1.66314,-45.00804 0.51232,-64.57688 -4.29974,-73.11268 -26.28538,-133.79773 -60.62646,-167.3419 l -5.47616,-5.34908 62.73685,-1.99257 c 34.50526,-1.09593 62.92695,-1.39608 63.15931,-0.66702 0.55849,1.75242 -58.91255,242.99276 -60.01751,243.45703 -0.47,0.19748 -0.59974,-1.39083 -0.28835,-3.52958 z"
       id="path37778-1" />
    <path
       style="fill:#ffd721;fill-opacity:1;stroke-width:1.36387"
       d="m 703.27509,636.71496 c 3.52044,-8.91729 11.94168,-43.4268 15.30974,-62.73792 12.58371,-72.14987 5.10261,-136.25975 -20.62947,-176.78605 l -4.10334,-6.46249 61.52146,12.44961 c 33.8368,6.84728 61.56969,13.07381 61.62864,13.83673 0.14167,1.8338 -113.07391,223.00327 -114.2559,223.20174 -0.50276,0.0844 -0.26476,-1.4913 0.52887,-3.50162 z"
       id="path37778-2" />
  </g>
</svg>
